<?xml version="1.0" encoding="UTF-8" standalone="no"?>
<svg
   version="1.1"
   viewBox="0 0 1024 500"
   fill="none"
   stroke="none"
   stroke-linecap="square"
   stroke-miterlimit="10"
   id="svg1063"
   sodipodi:docname="ORT BigHeader.svg"
   width="1024"
   height="500"
   inkscape:version="1.1 (c4e8f9e, 2021-05-24)"
   inkscape:export-filename="/Users/charlescolbourn/charlesc/code/openracetiming/ORT Header Android.png"
   inkscape:export-xdpi="96"
   inkscape:export-ydpi="96"
   xmlns:inkscape="http://www.inkscape.org/namespaces/inkscape"
   xmlns:sodipodi="http://sodipodi.sourceforge.net/DTD/sodipodi-0.dtd"
   xmlns="http://www.w3.org/2000/svg"
   xmlns:svg="http://www.w3.org/2000/svg">
  <defs
     id="defs1067" />
  <sodipodi:namedview
     id="namedview1065"
     pagecolor="#ffffff"
     bordercolor="#666666"
     borderopacity="1.0"
     inkscape:pageshadow="2"
     inkscape:pageopacity="0.0"
     inkscape:pagecheckerboard="0"
     showgrid="false"
     width="1024px"
     inkscape:zoom="1"
     inkscape:cx="515"
     inkscape:cy="152"
     inkscape:window-width="1792"
     inkscape:window-height="952"
     inkscape:window-x="0"
     inkscape:window-y="25"
     inkscape:window-maximized="1"
     inkscape:current-layer="svg1063" />
  <clipPath
     id="p.0">
    <path
       d="M 0,0 H 244.83727 V 100 H 0 Z"
       clip-rule="nonzero"
       id="path1036" />
  </clipPath>
  <g
     clip-path="url(#p.0)"
     id="g1061"
     transform="matrix(3.9243913,0,0,4.04,35,21)">
    <path
       fill="#000000"
       fill-opacity="0"
       d="M 0,0 H 244.83727 V 100 H 0 Z"
       fill-rule="evenodd"
       id="path1039" />
    <path
       fill="#e69138"
       d="m 8.761155,49.07874 v 0 c 0,-24.022211 19.47385,-43.496063 43.496063,-43.496063 v 0 c 11.535873,0 22.599266,4.582608 30.756363,12.7397 8.157089,8.157095 12.7397,19.220488 12.7397,30.756361 v 0 c 0,24.022213 -19.473854,43.496067 -43.496063,43.496067 v 0 c -24.022211,0 -43.496063,-19.473854 -43.496063,-43.496067 z"
       fill-rule="evenodd"
       id="path1041" />
    <path
       stroke="#e69138"
       stroke-width="1"
       stroke-linejoin="round"
       stroke-linecap="butt"
       d="m 8.761155,49.07874 v 0 c 0,-24.022211 19.47385,-43.496063 43.496063,-43.496063 v 0 c 11.535873,0 22.599266,4.582608 30.756363,12.7397 8.157089,8.157095 12.7397,19.220488 12.7397,30.756361 v 0 c 0,24.022213 -19.473854,43.496067 -43.496063,43.496067 v 0 c -24.022211,0 -43.496063,-19.473854 -43.496063,-43.496067 z"
       fill-rule="evenodd"
       id="path1043" />
    <path
       fill="#000000"
       fill-opacity="0"
       d="m 49.78478,28.070866 h 195.05511 v 42.01575 H 49.78478 Z"
       fill-rule="evenodd"
       id="path1045" />
    <path
       fill="#cc0000"
       d="m 59.581654,54.990864 2.796875,-13.359375 h 5.578121 q 1.453125,0 2.171875,0.34375 0.71875,0.328125 1.1875,1.140625 0.484375,0.796875 0.484375,1.796875 0,0.828125 -0.34375,1.6875 -0.328125,0.859375 -0.84375,1.421875 -0.515625,0.546875 -1.046875,0.828125 -0.53125,0.28125 -1.125,0.421875 -1.28125,0.296875 -2.59375,0.296875 h -3.343746 l -1.125,5.421875 z m 3.234375,-6.9375 h 2.953121 q 1.703125,0 2.5,-0.359375 0.8125,-0.375 1.296875,-1.125 0.484375,-0.765625 0.484375,-1.609375 0,-0.65625 -0.265625,-1.0625 -0.25,-0.421875 -0.71875,-0.609375 -0.46875,-0.203125 -1.78125,-0.203125 h -3.421871 z m 9.256069,6.9375 2.796875,-13.359375 h 9.625 l -0.3125,1.53125 h -7.859375 l -0.859375,4.15625 h 7.640625 l -0.3125,1.515625 h -7.65625 l -0.96875,4.640625 h 8.40625 l -0.3125,1.515625 z m 12.506073,0 2.796875,-13.359375 h 1.734375 l 2.25,5.015625 q 1.03125,2.296875 1.625,3.859375 0.359375,0.90625 0.8125,2.46875 0.234375,-1.6875 0.609375,-3.484375 l 1.640625,-7.859375 h 1.75 l -2.796875,13.359375 h -1.765625 l -3.3125,-7.71875 q -0.890625,-2.03125 -1.375,-3.59375 -0.140625,1.296875 -0.53125,3.203125 l -1.6875,8.109375 z m 18.624999,0 2.79688,-13.359375 h 5.60937 q 1.65625,0 2.5,0.28125 0.85938,0.28125 1.34375,1.046875 0.5,0.765625 0.5,1.921875 0,1.640625 -1.07812,2.71875 -1.0625,1.0625 -3.4375,1.390625 0.73437,0.53125 1.10937,1.046875 0.82813,1.1875 1.34375,2.4375 l 1.01563,2.515625 h -2 l -0.95313,-2.484375 q -0.51562,-1.34375 -1.1875,-2.328125 -0.45312,-0.6875 -0.92187,-0.90625 -0.46875,-0.21875 -1.54688,-0.21875 h -2.0625 l -1.25,5.9375 z m 3.32813,-7.375 h 2.46875 q 1.70312,0 2.23437,-0.04687 1,-0.109375 1.64063,-0.453125 0.65625,-0.359375 1.01562,-0.953125 0.35938,-0.609375 0.35938,-1.296875 0,-0.59375 -0.26563,-1.015625 -0.26562,-0.4375 -0.70312,-0.59375 -0.42188,-0.15625 -1.45313,-0.15625 h -4.35937 z m 8.89482,7.375 7.57812,-13.359375 h 2.09375 l 2.20313,13.359375 h -1.71875 l -0.65625,-3.84375 h -5.40625 l -2.14063,3.84375 z m 4.85937,-5.21875 h 4.42188 l -0.51563,-3.359375 q -0.29687,-1.984375 -0.375,-3.3125 -0.45312,1.140625 -1.32812,2.71875 z m 19.2092,0.515625 1.76562,0.25 q -0.84375,2.3125 -2.45312,3.5 -1.59375,1.1875 -3.57813,1.1875 -2.4375,0 -3.875,-1.484375 -1.42187,-1.484375 -1.42187,-4.265625 0,-3.609375 2.17187,-5.96875 1.9375,-2.09375 4.79688,-2.09375 2.125,0 3.4375,1.140625 1.32812,1.125 1.53125,3.0625 l -1.67188,0.140625 q -0.25,-1.4375 -1.07812,-2.15625 -0.82813,-0.71875 -2.125,-0.71875 -2.45313,0 -3.96875,2.1875 -1.3125,1.875 -1.3125,4.453125 0,2.046875 1.01562,3.140625 1.01563,1.078125 2.625,1.078125 1.39063,0 2.5,-0.890625 1.125,-0.90625 1.64063,-2.5625 z m 3.0667,4.703125 2.79687,-13.359375 h 9.625 l -0.3125,1.53125 h -7.85937 l -0.85938,4.15625 h 7.64063 l -0.3125,1.515625 h -7.65625 l -0.96875,4.640625 h 8.40625 l -0.3125,1.515625 z m 21.0175,0 2.46875,-11.828125 h -4.375 l 0.3125,-1.53125 h 10.51562 l -0.32812,1.53125 h -4.34375 l -2.46875,11.828125 z m 8.2241,0 2.79688,-13.359375 h 1.78125 l -2.79688,13.359375 z m 4.93331,0 2.79687,-13.359375 h 2.1875 l 1.35938,8.65625 q 0.26562,1.703125 0.34375,3.265625 0.54687,-1.34375 1.85937,-3.640625 l 4.67188,-8.28125 h 2.23437 l -2.78125,13.359375 h -1.76562 l 1.40625,-6.5 q 0.46875,-2.25 1.375,-5.046875 -0.57813,1.3125 -1.42188,2.8125 l -4.96875,8.734375 h -1.71875 l -1.34375,-8.5625 q -0.1875,-1.171875 -0.26562,-2.75 -0.21875,1.765625 -0.4375,2.796875 l -1.78125,8.515625 z m 15.7908,0 2.79688,-13.359375 h 1.78125 l -2.79688,13.359375 z m 5.02705,0 2.79688,-13.359375 h 1.73437 l 2.25,5.015625 q 1.03125,2.296875 1.625,3.859375 0.35938,0.90625 0.8125,2.46875 0.23438,-1.6875 0.60938,-3.484375 l 1.64062,-7.859375 h 1.75 l -2.79687,13.359375 h -1.76563 l -3.3125,-7.71875 q -0.89062,-2.03125 -1.375,-3.59375 -0.14062,1.296875 -0.53125,3.203125 l -1.6875,8.109375 z m 20.20733,-5.265625 0.32812,-1.515625 h 5.84375 l -1.14062,5.4375 q -1.10938,0.703125 -2.51563,1.140625 -1.40625,0.4375 -2.78125,0.4375 -2.90625,0 -4.34375,-1.765625 -1.21875,-1.484375 -1.21875,-3.8125 0,-2.40625 1.0625,-4.375 1.0625,-1.984375 2.67188,-2.921875 1.625,-0.9375 3.59375,-0.9375 1.42187,0 2.54687,0.515625 1.14063,0.515625 1.73438,1.375 0.60937,0.859375 0.875,2.234375 l -1.75,0.203125 q -0.28125,-1.375 -1.17188,-2.109375 -0.89062,-0.734375 -2.28125,-0.734375 -1.45312,0 -2.71875,0.796875 -1.25,0.78125 -2,2.375 -0.75,1.578125 -0.75,3.609375 0,2 0.98438,3.03125 1,1.03125 2.75,1.03125 1.73437,0 3.75,-1.140625 l 0.59375,-2.875 z"
       fill-rule="nonzero"
       id="path1047" />
    <path
       fill="#000000"
       fill-opacity="0"
       d="M 6.67979,6.2598424 H 64.475067 V 91.897636 H 6.67979 Z"
       fill-rule="evenodd"
       id="path1049" />
    <path
       fill="#cc0000"
       d="m 20.664165,51.349216 q 0,-10.453125 6.046875,-16.921875 6.046875,-6.484375 14.671875,-6.484375 7.3125,0 11.90625,4.765625 4.609375,4.765625 4.609375,12.78125 0,5.703125 -2.328125,10.59375 -1.734375,3.65625 -4.375,6.3125 -2.640625,2.640629 -5.65625,4.093754 -4,1.921875 -8.484375,1.921875 -4.6875,0 -8.546875,-2.234375 -3.859375,-2.250004 -5.859375,-6.265629 -1.984375,-4.015625 -1.984375,-8.5625 z m 5.15625,0.265625 q 0,3.453125 1.421875,6.34375 1.4375,2.875 4.265625,4.5 2.828125,1.625004 5.953125,1.625004 3.015625,0 5.734375,-1.421879 2.71875,-1.4375 4.859375,-3.984375 2.15625,-2.546875 3.390625,-6.265625 1.25,-3.734375 1.25,-7.328125 0,-5.84375 -3.265625,-9.3125 -3.265625,-3.46875 -8.078125,-3.46875 -6.140625,0 -10.84375,5.25 -4.6875,5.234375 -4.6875,14.0625 z"
       fill-rule="nonzero"
       id="path1051" />
    <path
       fill="#000000"
       fill-opacity="0"
       d="m 39.761154,48.70866 4,-14.992126"
       fill-rule="evenodd"
       id="path1053" />
    <path
       stroke="#a61c00"
       stroke-width="1"
       stroke-linejoin="round"
       stroke-linecap="butt"
       d="m 39.761154,48.70866 4,-14.992126"
       fill-rule="evenodd"
       id="path1055" />
    <path
       fill="#000000"
       fill-opacity="0"
       d="m 42.385826,24.708662 h 8.251968"
       fill-rule="evenodd"
       id="path1057" />
    <path
       stroke="#cc0000"
       stroke-width="4"
       stroke-linejoin="round"
       stroke-linecap="butt"
       d="m 42.385826,24.708662 h 8.251968"
       fill-rule="evenodd"
       id="path1059" />
  </g>
</svg>
