<svg version="1.1" viewBox="0.0 0.0 244.83727034120736 100.0" fill="none" stroke="none" stroke-linecap="square" stroke-miterlimit="10" xmlns:xlink="http://www.w3.org/1999/xlink" xmlns="http://www.w3.org/2000/svg"><clipPath id="p.0"><path d="m0 0l244.83727 0l0 100.0l-244.83727 0l0 -100.0z" clip-rule="nonzero"/></clipPath><g clip-path="url(#p.0)"><path fill="#000000" fill-opacity="0.0" d="m0 0l244.83727 0l0 100.0l-244.83727 0z" fill-rule="evenodd"/><path fill="#e69138" d="m8.761155 49.07874l0 0c0 -24.022211 19.47385 -43.496063 43.496063 -43.496063l0 0c11.535873 0 22.599266 4.5826077 30.756363 12.7397c8.157089 8.157095 12.7397 19.220488 12.7397 30.756361l0 0c0 24.022213 -19.473854 43.496067 -43.496063 43.496067l0 0c-24.022211 0 -43.496063 -19.473854 -43.496063 -43.496067z" fill-rule="evenodd"/><path stroke="#e69138" stroke-width="1.0" stroke-linejoin="round" stroke-linecap="butt" d="m8.761155 49.07874l0 0c0 -24.022211 19.47385 -43.496063 43.496063 -43.496063l0 0c11.535873 0 22.599266 4.5826077 30.756363 12.7397c8.157089 8.157095 12.7397 19.220488 12.7397 30.756361l0 0c0 24.022213 -19.473854 43.496067 -43.496063 43.496067l0 0c-24.022211 0 -43.496063 -19.473854 -43.496063 -43.496067z" fill-rule="evenodd"/><path fill="#000000" fill-opacity="0.0" d="m49.78478 28.070866l195.05511 0l0 42.01575l-195.05511 0z" fill-rule="evenodd"/><path fill="#cc0000" d="m59.581654 54.990864l2.796875 -13.359375l5.578121 0q1.453125 0 2.171875 0.34375q0.71875 0.328125 1.1875 1.140625q0.484375 0.796875 0.484375 1.796875q0 0.828125 -0.34375 1.6875q-0.328125 0.859375 -0.84375 1.421875q-0.515625 0.546875 -1.046875 0.828125q-0.53125 0.28125 -1.125 0.421875q-1.28125 0.296875 -2.59375 0.296875l-3.3437462 0l-1.125 5.421875l-1.796875 0zm3.234375 -6.9375l2.9531212 0q1.703125 0 2.5 -0.359375q0.8125 -0.375 1.296875 -1.125q0.484375 -0.765625 0.484375 -1.609375q0 -0.65625 -0.265625 -1.0625q-0.25 -0.421875 -0.71875 -0.609375q-0.46875 -0.203125 -1.78125 -0.203125l-3.4218712 0l-1.046875 4.96875zm9.256069 6.9375l2.796875 -13.359375l9.625 0l-0.3125 1.53125l-7.859375 0l-0.859375 4.15625l7.640625 0l-0.3125 1.515625l-7.65625 0l-0.96875 4.640625l8.40625 0l-0.3125 1.515625l-10.1875 0zm12.506073 0l2.796875 -13.359375l1.734375 0l2.25 5.015625q1.03125 2.296875 1.625 3.859375q0.359375 0.90625 0.8125 2.46875q0.234375 -1.6875 0.609375 -3.484375l1.640625 -7.859375l1.75 0l-2.796875 13.359375l-1.765625 0l-3.3125 -7.71875q-0.890625 -2.03125 -1.375 -3.59375q-0.140625 1.296875 -0.53125 3.203125l-1.6875 8.109375l-1.75 0zm18.625 0l2.796875 -13.359375l5.609375 0q1.65625 0 2.5 0.28125q0.859375 0.28125 1.34375 1.046875q0.5 0.765625 0.5 1.921875q0 1.640625 -1.078125 2.71875q-1.0625 1.0625 -3.4375 1.390625q0.734375 0.53125 1.109375 1.046875q0.828125 1.1875 1.34375 2.4375l1.015625 2.515625l-2.0 0l-0.953125 -2.484375q-0.515625 -1.34375 -1.1875 -2.328125q-0.453125 -0.6875 -0.921875 -0.90625q-0.46875 -0.21875 -1.546875 -0.21875l-2.0625 0l-1.25 5.9375l-1.78125 0zm3.328125 -7.375l2.46875 0q1.703125 0 2.234375 -0.046875q1.0 -0.109375 1.640625 -0.453125q0.65625 -0.359375 1.015625 -0.953125q0.359375 -0.609375 0.359375 -1.296875q0 -0.59375 -0.265625 -1.015625q-0.265625 -0.4375 -0.703125 -0.59375q-0.421875 -0.15625 -1.453125 -0.15625l-4.359375 0l-0.9375 4.515625zm8.894821 7.375l7.578125 -13.359375l2.09375 0l2.203125 13.359375l-1.71875 0l-0.65625 -3.84375l-5.40625 0l-2.140625 3.84375l-1.953125 0zm4.859375 -5.21875l4.421875 0l-0.515625 -3.359375q-0.296875 -1.984375 -0.375 -3.3125q-0.453125 1.140625 -1.328125 2.71875l-2.203125 3.953125zm19.209198 0.515625l1.765625 0.25q-0.84375 2.3125 -2.453125 3.5q-1.59375 1.1875 -3.578125 1.1875q-2.4375 0 -3.875 -1.484375q-1.421875 -1.484375 -1.421875 -4.265625q0 -3.609375 2.171875 -5.96875q1.9375 -2.09375 4.796875 -2.09375q2.125 0 3.4375 1.140625q1.328125 1.125 1.53125 3.0625l-1.671875 0.140625q-0.25 -1.4375 -1.078125 -2.15625q-0.828125 -0.71875 -2.125 -0.71875q-2.453125 0 -3.96875 2.1875q-1.3125 1.875 -1.3125 4.453125q0 2.046875 1.015625 3.140625q1.015625 1.078125 2.625 1.078125q1.390625 0 2.5 -0.890625q1.125 -0.90625 1.640625 -2.5625zm3.0666962 4.703125l2.796875 -13.359375l9.625 0l-0.3125 1.53125l-7.859375 0l-0.859375 4.15625l7.640625 0l-0.3125 1.515625l-7.65625 0l-0.96875 4.640625l8.40625 0l-0.3125 1.515625l-10.1875 0zm21.017502 0l2.46875 -11.828125l-4.375 0l0.3125 -1.53125l10.515625 0l-0.328125 1.53125l-4.34375 0l-2.46875 11.828125l-1.78125 0zm8.224106 0l2.796875 -13.359375l1.78125 0l-2.796875 13.359375l-1.78125 0zm4.933304 0l2.796875 -13.359375l2.1875 0l1.359375 8.65625q0.265625 1.703125 0.34375 3.265625q0.546875 -1.34375 1.859375 -3.640625l4.671875 -8.28125l2.234375 0l-2.78125 13.359375l-1.765625 0l1.40625 -6.5q0.46875 -2.25 1.375 -5.046875q-0.578125 1.3125 -1.421875 2.8125l-4.96875 8.734375l-1.71875 0l-1.34375 -8.5625q-0.1875 -1.171875 -0.265625 -2.75q-0.21875 1.765625 -0.4375 2.796875l-1.78125 8.515625l-1.75 0zm15.790802 0l2.796875 -13.359375l1.78125 0l-2.796875 13.359375l-1.78125 0zm5.027054 0l2.796875 -13.359375l1.734375 0l2.25 5.015625q1.03125 2.296875 1.625 3.859375q0.359375 0.90625 0.8125 2.46875q0.234375 -1.6875 0.609375 -3.484375l1.640625 -7.859375l1.75 0l-2.796875 13.359375l-1.765625 0l-3.3125 -7.71875q-0.890625 -2.03125 -1.375 -3.59375q-0.140625 1.296875 -0.53125 3.203125l-1.6875 8.109375l-1.75 0zm20.207321 -5.265625l0.328125 -1.515625l5.84375 0l-1.140625 5.4375q-1.109375 0.703125 -2.515625 1.140625q-1.40625 0.4375 -2.78125 0.4375q-2.90625 0 -4.34375 -1.765625q-1.21875 -1.484375 -1.21875 -3.8125q0 -2.40625 1.0625 -4.375q1.0625 -1.984375 2.671875 -2.921875q1.625 -0.9375 3.59375 -0.9375q1.421875 0 2.546875 0.515625q1.140625 0.515625 1.734375 1.375q0.609375 0.859375 0.875 2.234375l-1.75 0.203125q-0.28125 -1.375 -1.171875 -2.109375q-0.890625 -0.734375 -2.28125 -0.734375q-1.453125 0 -2.71875 0.796875q-1.25 0.78125 -2.0 2.375q-0.75 1.578125 -0.75 3.609375q0 2.0 0.984375 3.03125q1.0 1.03125 2.75 1.03125q1.734375 0 3.75 -1.140625l0.59375 -2.875l-4.0625 0z" fill-rule="nonzero"/><path fill="#000000" fill-opacity="0.0" d="m6.67979 6.2598424l57.795277 0l0 85.637794l-57.795277 0z" fill-rule="evenodd"/><path fill="#cc0000" d="m20.664165 51.349216q0 -10.453125 6.046875 -16.921875q6.046875 -6.484375 14.671875 -6.484375q7.3125 0 11.90625 4.765625q4.609375 4.765625 4.609375 12.78125q0 5.703125 -2.328125 10.59375q-1.734375 3.65625 -4.375 6.3125q-2.640625 2.6406288 -5.65625 4.093754q-4.0 1.921875 -8.484375 1.921875q-4.6875 0 -8.546875 -2.234375q-3.859375 -2.2500038 -5.859375 -6.265629q-1.984375 -4.015625 -1.984375 -8.5625zm5.15625 0.265625q0 3.453125 1.421875 6.34375q1.4375 2.875 4.265625 4.5q2.828125 1.6250038 5.953125 1.6250038q3.015625 0 5.734375 -1.4218788q2.71875 -1.4375 4.859375 -3.984375q2.15625 -2.546875 3.390625 -6.265625q1.25 -3.734375 1.25 -7.328125q0 -5.84375 -3.265625 -9.3125q-3.265625 -3.46875 -8.078125 -3.46875q-6.140625 0 -10.84375 5.25q-4.6875 5.234375 -4.6875 14.0625z" fill-rule="nonzero"/><path fill="#000000" fill-opacity="0.0" d="m39.761154 48.70866l4.0 -14.992126" fill-rule="evenodd"/><path stroke="#a61c00" stroke-width="1.0" stroke-linejoin="round" stroke-linecap="butt" d="m39.761154 48.70866l4.0 -14.992126" fill-rule="evenodd"/><path fill="#000000" fill-opacity="0.0" d="m42.385826 24.708662l8.251968 0" fill-rule="evenodd"/><path stroke="#cc0000" stroke-width="4.0" stroke-linejoin="round" stroke-linecap="butt" d="m42.385826 24.708662l8.251968 0" fill-rule="evenodd"/></g></svg>