<?xml version="1.0" encoding="UTF-8" standalone="no"?>
<svg
   version="1.1"
   viewBox="0 0 100 100"
   fill="none"
   stroke="none"
   stroke-linecap="square"
   stroke-miterlimit="10"
   id="svg851"
   sodipodi:docname="ORT_logo.svg"
   inkscape:export-filename="/Users/charlescolbourn/charlesc/code/openracetiming/ort_android.png"
   inkscape:export-xdpi="491.51999"
   inkscape:export-ydpi="491.51999"
   width="100"
   height="100"
   inkscape:version="1.1 (c4e8f9e, 2021-05-24)"
   xmlns:inkscape="http://www.inkscape.org/namespaces/inkscape"
   xmlns:sodipodi="http://sodipodi.sourceforge.net/DTD/sodipodi-0.dtd"
   xmlns="http://www.w3.org/2000/svg"
   xmlns:svg="http://www.w3.org/2000/svg">
  <defs
     id="defs855" />
  <sodipodi:namedview
     id="namedview853"
     pagecolor="#ffffff"
     bordercolor="#666666"
     borderopacity="1.0"
     inkscape:pageshadow="2"
     inkscape:pageopacity="0.0"
     inkscape:pagecheckerboard="0"
     showgrid="false"
     width="100.19423px"
     inkscape:zoom="7.3"
     inkscape:cx="45.068493"
     inkscape:cy="50"
     inkscape:window-width="1792"
     inkscape:window-height="952"
     inkscape:window-x="0"
     inkscape:window-y="25"
     inkscape:window-maximized="1"
     inkscape:current-layer="svg851" />
  <clipPath
     id="p.0">
    <path
       d="M 0,0 H 106.19423 V 100 H 0 Z"
       clip-rule="nonzero"
       id="path824" />
  </clipPath>
  <g
     clip-path="url(#p.0)"
     id="g849">
    <path
       fill="#000000"
       fill-opacity="0"
       d="M 0,0 H 106.19423 V 100 H 0 Z"
       fill-rule="evenodd"
       id="path827" />
    <path
       fill="#e69138"
       d="m 8.761155,49.07874 v 0 c 0,-24.022211 19.47385,-43.496063 43.496063,-43.496063 v 0 c 11.535873,0 22.599266,4.582608 30.756363,12.7397 8.157089,8.157095 12.7397,19.220488 12.7397,30.756361 v 0 c 0,24.022213 -19.473854,43.496067 -43.496063,43.496067 v 0 c -24.022211,0 -43.496063,-19.473854 -43.496063,-43.496067 z"
       fill-rule="evenodd"
       id="path829" />
    <path
       stroke="#e69138"
       stroke-width="1"
       stroke-linejoin="round"
       stroke-linecap="butt"
       d="m 8.761155,49.07874 v 0 c 0,-24.022211 19.47385,-43.496063 43.496063,-43.496063 v 0 c 11.535873,0 22.599266,4.582608 30.756363,12.7397 8.157089,8.157095 12.7397,19.220488 12.7397,30.756361 v 0 c 0,24.022213 -19.473854,43.496067 -43.496063,43.496067 v 0 c -24.022211,0 -43.496063,-19.473854 -43.496063,-43.496067 z"
       fill-rule="evenodd"
       id="path831" />
    <path
       fill="#000000"
       fill-opacity="0"
       d="m 49.78478,28.070866 h 97.95276 v 42.01575 H 49.78478 Z"
       fill-rule="evenodd"
       id="path833" />
    <path
       fill="#cc0000"
       d="m 59.65978,54.990864 2.796875,-13.359375 h 5.609371 q 1.65625,0 2.5,0.28125 0.859375,0.28125 1.34375,1.046875 0.5,0.765625 0.5,1.921875 0,1.640625 -1.078125,2.71875 -1.0625,1.0625 -3.4375,1.390625 0.734375,0.53125 1.109375,1.046875 0.828125,1.1875 1.34375,2.4375 l 1.015625,2.515625 h -2 l -0.953125,-2.484375 q -0.515625,-1.34375 -1.1875,-2.328125 -0.453125,-0.6875 -0.921875,-0.90625 -0.46875,-0.21875 -1.546875,-0.21875 H 62.69103 l -1.25,5.9375 z m 3.328125,-7.375 h 2.468746 q 1.703125,0 2.234375,-0.04687 1,-0.109375 1.640625,-0.453125 0.65625,-0.359375 1.015625,-0.953125 0.359375,-0.609375 0.359375,-1.296875 0,-0.59375 -0.265625,-1.015625 -0.265625,-0.4375 -0.703125,-0.59375 -0.421875,-0.15625 -1.453125,-0.15625 h -4.359371 z m 13.166958,7.375 2.46875,-11.828125 h -4.375 l 0.3125,-1.53125 h 10.515625 l -0.328125,1.53125 h -4.34375 l -2.46875,11.828125 z"
       fill-rule="nonzero"
       id="path835" />
    <path
       fill="#000000"
       fill-opacity="0"
       d="M 6.67979,6.2598424 H 64.475067 V 91.897636 H 6.67979 Z"
       fill-rule="evenodd"
       id="path837" />
    <path
       fill="#cc0000"
       d="m 20.664165,51.349216 q 0,-10.453125 6.046875,-16.921875 6.046875,-6.484375 14.671875,-6.484375 7.3125,0 11.90625,4.765625 4.609375,4.765625 4.609375,12.78125 0,5.703125 -2.328125,10.59375 -1.734375,3.65625 -4.375,6.3125 -2.640625,2.640629 -5.65625,4.093754 -4,1.921875 -8.484375,1.921875 -4.6875,0 -8.546875,-2.234375 -3.859375,-2.250004 -5.859375,-6.265629 -1.984375,-4.015625 -1.984375,-8.5625 z m 5.15625,0.265625 q 0,3.453125 1.421875,6.34375 1.4375,2.875 4.265625,4.5 2.828125,1.625004 5.953125,1.625004 3.015625,0 5.734375,-1.421879 2.71875,-1.4375 4.859375,-3.984375 2.15625,-2.546875 3.390625,-6.265625 1.25,-3.734375 1.25,-7.328125 0,-5.84375 -3.265625,-9.3125 -3.265625,-3.46875 -8.078125,-3.46875 -6.140625,0 -10.84375,5.25 -4.6875,5.234375 -4.6875,14.0625 z"
       fill-rule="nonzero"
       id="path839" />
    <path
       fill="#000000"
       fill-opacity="0"
       d="m 39.761154,48.70866 4,-14.992126"
       fill-rule="evenodd"
       id="path841" />
    <path
       stroke="#a61c00"
       stroke-width="1"
       stroke-linejoin="round"
       stroke-linecap="butt"
       d="m 39.761154,48.70866 4,-14.992126"
       fill-rule="evenodd"
       id="path843" />
    <path
       fill="#000000"
       fill-opacity="0"
       d="m 42.385826,24.708662 h 8.251968"
       fill-rule="evenodd"
       id="path845" />
    <path
       stroke="#cc0000"
       stroke-width="4"
       stroke-linejoin="round"
       stroke-linecap="butt"
       d="m 42.385826,24.708662 h 8.251968"
       fill-rule="evenodd"
       id="path847" />
  </g>
</svg>
