<svg version="1.1" viewBox="0.0 0.0 106.19422572178478 100.0" fill="none" stroke="none" stroke-linecap="square" stroke-miterlimit="10" xmlns:xlink="http://www.w3.org/1999/xlink" xmlns="http://www.w3.org/2000/svg"><clipPath id="p.0"><path d="m0 0l106.19423 0l0 100.0l-106.19423 0l0 -100.0z" clip-rule="nonzero"/></clipPath><g clip-path="url(#p.0)"><path fill="#000000" fill-opacity="0.0" d="m0 0l106.19423 0l0 100.0l-106.19423 0z" fill-rule="evenodd"/><path fill="#e69138" d="m8.761155 49.07874l0 0c0 -24.022211 19.47385 -43.496063 43.496063 -43.496063l0 0c11.535873 0 22.599266 4.5826077 30.756363 12.7397c8.157089 8.157095 12.7397 19.220488 12.7397 30.756361l0 0c0 24.022213 -19.473854 43.496067 -43.496063 43.496067l0 0c-24.022211 0 -43.496063 -19.473854 -43.496063 -43.496067z" fill-rule="evenodd"/><path stroke="#e69138" stroke-width="1.0" stroke-linejoin="round" stroke-linecap="butt" d="m8.761155 49.07874l0 0c0 -24.022211 19.47385 -43.496063 43.496063 -43.496063l0 0c11.535873 0 22.599266 4.5826077 30.756363 12.7397c8.157089 8.157095 12.7397 19.220488 12.7397 30.756361l0 0c0 24.022213 -19.473854 43.496067 -43.496063 43.496067l0 0c-24.022211 0 -43.496063 -19.473854 -43.496063 -43.496067z" fill-rule="evenodd"/><path fill="#000000" fill-opacity="0.0" d="m49.78478 28.070866l97.95276 0l0 42.01575l-97.95276 0z" fill-rule="evenodd"/><path fill="#cc0000" d="m59.65978 54.990864l2.796875 -13.359375l5.609371 0q1.65625 0 2.5 0.28125q0.859375 0.28125 1.34375 1.046875q0.5 0.765625 0.5 1.921875q0 1.640625 -1.078125 2.71875q-1.0625 1.0625 -3.4375 1.390625q0.734375 0.53125 1.109375 1.046875q0.828125 1.1875 1.34375 2.4375l1.015625 2.515625l-2.0 0l-0.953125 -2.484375q-0.515625 -1.34375 -1.1875 -2.328125q-0.453125 -0.6875 -0.921875 -0.90625q-0.46875 -0.21875 -1.546875 -0.21875l-2.0624962 0l-1.25 5.9375l-1.78125 0zm3.328125 -7.375l2.4687462 0q1.703125 0 2.234375 -0.046875q1.0 -0.109375 1.640625 -0.453125q0.65625 -0.359375 1.015625 -0.953125q0.359375 -0.609375 0.359375 -1.296875q0 -0.59375 -0.265625 -1.015625q-0.265625 -0.4375 -0.703125 -0.59375q-0.421875 -0.15625 -1.453125 -0.15625l-4.359371 0l-0.9375 4.515625zm13.166958 7.375l2.46875 -11.828125l-4.375 0l0.3125 -1.53125l10.515625 0l-0.328125 1.53125l-4.34375 0l-2.46875 11.828125l-1.78125 0z" fill-rule="nonzero"/><path fill="#000000" fill-opacity="0.0" d="m6.67979 6.2598424l57.795277 0l0 85.637794l-57.795277 0z" fill-rule="evenodd"/><path fill="#cc0000" d="m20.664165 51.349216q0 -10.453125 6.046875 -16.921875q6.046875 -6.484375 14.671875 -6.484375q7.3125 0 11.90625 4.765625q4.609375 4.765625 4.609375 12.78125q0 5.703125 -2.328125 10.59375q-1.734375 3.65625 -4.375 6.3125q-2.640625 2.6406288 -5.65625 4.093754q-4.0 1.921875 -8.484375 1.921875q-4.6875 0 -8.546875 -2.234375q-3.859375 -2.2500038 -5.859375 -6.265629q-1.984375 -4.015625 -1.984375 -8.5625zm5.15625 0.265625q0 3.453125 1.421875 6.34375q1.4375 2.875 4.265625 4.5q2.828125 1.6250038 5.953125 1.6250038q3.015625 0 5.734375 -1.4218788q2.71875 -1.4375 4.859375 -3.984375q2.15625 -2.546875 3.390625 -6.265625q1.25 -3.734375 1.25 -7.328125q0 -5.84375 -3.265625 -9.3125q-3.265625 -3.46875 -8.078125 -3.46875q-6.140625 0 -10.84375 5.25q-4.6875 5.234375 -4.6875 14.0625z" fill-rule="nonzero"/><path fill="#000000" fill-opacity="0.0" d="m39.761154 48.70866l4.0 -14.992126" fill-rule="evenodd"/><path stroke="#a61c00" stroke-width="1.0" stroke-linejoin="round" stroke-linecap="butt" d="m39.761154 48.70866l4.0 -14.992126" fill-rule="evenodd"/><path fill="#000000" fill-opacity="0.0" d="m42.385826 24.708662l8.251968 0" fill-rule="evenodd"/><path stroke="#cc0000" stroke-width="4.0" stroke-linejoin="round" stroke-linecap="butt" d="m42.385826 24.708662l8.251968 0" fill-rule="evenodd"/></g></svg>