<svg version="1.1" viewBox="0.0 0.0 960.0 720.0" fill="none" stroke="none" stroke-linecap="square" stroke-miterlimit="10" xmlns:xlink="http://www.w3.org/1999/xlink" xmlns="http://www.w3.org/2000/svg"><clipPath id="p.0"><path d="m0 0l960.0 0l0 720.0l-960.0 0l0 -720.0z" clip-rule="nonzero"/></clipPath><g clip-path="url(#p.0)"><path fill="#000000" fill-opacity="0.0" d="m0 0l960.0 0l0 720.0l-960.0 0z" fill-rule="evenodd"/><path fill="#e69138" d="m390.0 208.37007l0 0c0 -24.022202 19.473846 -43.496063 43.496063 -43.496063l0 0c11.535858 0 22.599274 4.582611 30.756348 12.739716c8.1571045 8.157089 12.739716 19.220474 12.739716 30.756348l0 0c0 24.022217 -19.473846 43.496063 -43.496063 43.496063l0 0c-24.022217 0 -43.496063 -19.473846 -43.496063 -43.496063z" fill-rule="evenodd"/><path stroke="#e69138" stroke-width="1.0" stroke-linejoin="round" stroke-linecap="butt" d="m390.0 208.37007l0 0c0 -24.022202 19.473846 -43.496063 43.496063 -43.496063l0 0c11.535858 0 22.599274 4.582611 30.756348 12.739716c8.1571045 8.157089 12.739716 19.220474 12.739716 30.756348l0 0c0 24.022217 -19.473846 43.496063 -43.496063 43.496063l0 0c-24.022217 0 -43.496063 -19.473846 -43.496063 -43.496063z" fill-rule="evenodd"/><path fill="#000000" fill-opacity="0.0" d="m431.02362 187.3622l97.95276 0l0 42.015762l-97.95276 0z" fill-rule="evenodd"/><path fill="#cc0000" d="m440.89862 214.2822l2.796875 -13.359375l5.609375 0q1.65625 0 2.5 0.28125q0.859375 0.28125 1.34375 1.046875q0.5 0.765625 0.5 1.921875q0 1.640625 -1.078125 2.71875q-1.0625 1.0625 -3.4375 1.390625q0.734375 0.53125 1.109375 1.046875q0.828125 1.1875 1.34375 2.4375l1.015625 2.515625l-2.0 0l-0.953125 -2.484375q-0.515625 -1.34375 -1.1875 -2.328125q-0.453125 -0.6875 -0.921875 -0.90625q-0.46875 -0.21875 -1.546875 -0.21875l-2.0625 0l-1.25 5.9375l-1.78125 0zm3.328125 -7.375l2.46875 0q1.703125 0 2.234375 -0.046875q1.0 -0.109375 1.640625 -0.453125q0.65625 -0.359375 1.015625 -0.953125q0.359375 -0.609375 0.359375 -1.296875q0 -0.59375 -0.265625 -1.015625q-0.265625 -0.4375 -0.703125 -0.59375q-0.421875 -0.15625 -1.453125 -0.15625l-4.359375 0l-0.9375 4.515625zm13.166962 7.375l2.46875 -11.828125l-4.375 0l0.3125 -1.53125l10.515625 0l-0.328125 1.53125l-4.34375 0l-2.46875 11.828125l-1.78125 0z" fill-rule="nonzero"/><path fill="#000000" fill-opacity="0.0" d="m387.91864 165.55118l57.795258 0l0 85.6378l-57.795258 0z" fill-rule="evenodd"/><path fill="#cc0000" d="m401.903 210.64055q0 -10.453125 6.046875 -16.921875q6.046875 -6.484375 14.671875 -6.484375q7.3125 0 11.90625 4.765625q4.609375 4.765625 4.609375 12.78125q0 5.703125 -2.328125 10.59375q-1.734375 3.65625 -4.375 6.3125q-2.640625 2.640625 -5.65625 4.09375q-4.0 1.921875 -8.484375 1.921875q-4.6875 0 -8.546875 -2.234375q-3.859375 -2.25 -5.859375 -6.265625q-1.984375 -4.015625 -1.984375 -8.5625zm5.15625 0.265625q0 3.453125 1.421875 6.34375q1.4375 2.875 4.265625 4.5q2.828125 1.625 5.953125 1.625q3.015625 0 5.734375 -1.421875q2.71875 -1.4375 4.859375 -3.984375q2.15625 -2.546875 3.390625 -6.265625q1.25 -3.734375 1.25 -7.328125q0 -5.84375 -3.265625 -9.3125q-3.265625 -3.46875 -8.078125 -3.46875q-6.140625 0 -10.84375 5.25q-4.6875 5.234375 -4.6875 14.0625z" fill-rule="nonzero"/><path fill="#000000" fill-opacity="0.0" d="m421.0 208.0l4.0 -14.992126" fill-rule="evenodd"/><path stroke="#a61c00" stroke-width="1.0" stroke-linejoin="round" stroke-linecap="butt" d="m421.0 208.0l4.0 -14.992126" fill-rule="evenodd"/><path fill="#000000" fill-opacity="0.0" d="m423.62466 184.0l8.251984 0" fill-rule="evenodd"/><path stroke="#cc0000" stroke-width="4.0" stroke-linejoin="round" stroke-linecap="butt" d="m423.62466 184.0l8.251984 0" fill-rule="evenodd"/></g></svg>